<svg width="355" height="328" viewBox="0 0 355 328" fill="none" xmlns="http://www.w3.org/2000/svg">
<g opacity="0.4">
<path fill-rule="evenodd" clip-rule="evenodd" d="M39.8156 -26.211C73.3642 -29.269 112.168 -44.46 136.927 -21.6601C161.881 1.32008 149.327 41.3768 150 75.2571C150.698 110.337 165.397 150.972 140.859 176.098C116.248 201.298 75.054 189.309 39.8156 188.081C6.5401 186.921 -31.5821 193.484 -54.4075 169.292C-76.9781 145.37 -69.1404 108.02 -66.6342 75.2571C-64.3971 46.0122 -62.294 14.8196 -41.0415 -5.43831C-20.1191 -25.3815 11.0033 -23.5848 39.8156 -26.211Z" stroke="#4E4E4E" stroke-width="0.3"/>
<path fill-rule="evenodd" clip-rule="evenodd" d="M316.266 -142.424C364.835 -147.711 410.416 -115.803 441.694 -78.6308C470.449 -44.4558 477.157 1.17159 474.449 45.5737C471.927 86.9105 457.748 127.13 427.404 155.628C397.8 183.43 356.982 191.52 316.266 194.129C271.769 196.981 222.642 200.67 189.751 170.856C156.031 140.291 147.19 90.5493 152.376 45.5737C157.048 5.05491 188.77 -23.1598 215.682 -54.0302C246.134 -88.9614 269.945 -137.382 316.266 -142.424Z" stroke="#4E4E4E" stroke-width="0.3"/>
<path fill-rule="evenodd" clip-rule="evenodd" d="M-72.3526 157.38C-40.4234 153.887 -10.4577 174.971 10.1041 199.533C29.0078 222.115 33.4182 252.264 31.6376 281.603C29.9799 308.917 20.6581 335.493 0.709867 354.323C-18.752 372.694 -45.5862 378.04 -72.3526 379.764C-101.606 381.648 -133.902 384.086 -155.525 364.386C-177.693 344.19 -183.505 311.322 -180.095 281.603C-177.024 254.83 -156.17 236.186 -138.478 215.788C-118.458 192.707 -102.805 160.712 -72.3526 157.38Z" stroke="#4E4E4E" stroke-width="0.3"/>
<path fill-rule="evenodd" clip-rule="evenodd" d="M131.835 184.723C164.2 176.194 207.534 171.339 227.433 198.368C247.369 225.449 215.862 260.903 212.598 294.428C209.945 321.662 226.209 351.09 210.392 373.364C193.112 397.698 161.372 404.6 131.835 408.16C97.1394 412.343 55.0665 421.138 31.861 394.885C8.85522 368.858 21.8725 327.924 31.306 294.428C38.055 270.464 59.1753 256.608 75.9641 238.287C94.0897 218.507 105.952 191.545 131.835 184.723Z" stroke="#4E4E4E" stroke-width="0.3"/>
<path fill-rule="evenodd" clip-rule="evenodd" d="M346.048 205.886C372.787 211.026 395.912 223.995 415.181 243.229C434.469 262.483 455.784 285.27 452.701 312.346C449.744 338.318 417.467 346.99 401.05 367.335C380.426 392.894 377.749 435.919 346.048 444.519C311.741 453.826 272.471 435.893 250.077 408.293C228.983 382.295 239.835 345.806 238.807 312.346C237.72 276.962 218.869 235.261 243.995 210.318C269.113 185.383 311.288 199.203 346.048 205.886Z" stroke="#4E4E4E" stroke-width="0.3"/>
<path d="M230.719 53.2546C230.719 53.2546 264.006 75.7534 282.412 67.4976C296.706 54.8823 311.345 16 311.345 16C311.345 16 304.697 49.0483 309.148 72.7693C316.339 85.3571 341.038 97.7761 341.038 97.7761C341.038 97.7761 300.821 87.5903 290.588 98.0085C275.035 103.884 247.935 141.689 247.935 141.689C247.935 141.689 269.96 96.8677 265.562 84.7542C261.163 72.6407 230.719 53.2546 230.719 53.2546Z" fill="#4E4E4E" fill-opacity="0.09"/>
<path d="M-14.3681 88.3421C-14.3681 88.3421 17.6284 64.0429 15.7204 43.9608C8.36361 26.3724 -23.7584 0.0226913 -23.7584 0.0226913C-23.7584 0.0226913 5.40454 16.9318 29.2987 20.3335C43.5289 17.566 63.2217 -1.83721 63.2217 -1.83721C63.2217 -1.83721 40.6606 32.9788 47.2411 46.0154C47.8107 62.6316 74.9108 100.436 74.9108 100.436C74.9108 100.436 39.5364 65.1845 26.6521 65.46C13.7677 65.7355 -14.3681 88.3421 -14.3681 88.3421Z" fill="#4E4E4E" fill-opacity="0.09"/>
<path d="M182.674 333.709C182.674 333.709 151.793 308.007 132.657 314.389C117.177 325.518 98.739 362.75 98.739 362.75C98.739 362.75 108.645 330.528 106.578 306.481C100.677 293.24 77.3369 278.423 77.3369 278.423C77.3369 278.423 116.34 292.563 127.559 283.216C143.62 278.918 174.35 244 174.35 244C174.35 244 147.971 286.405 151.141 298.896C154.312 311.388 182.674 333.709 182.674 333.709Z" fill="#4E4E4E" fill-opacity="0.09"/>
<path d="M404.674 352.709C404.674 352.709 373.793 327.007 354.657 333.389C339.177 344.518 320.739 381.75 320.739 381.75C320.739 381.75 330.645 349.528 328.578 325.481C322.677 312.24 299.337 297.423 299.337 297.423C299.337 297.423 338.34 311.563 349.559 302.216C365.62 297.918 396.35 263 396.35 263C396.35 263 369.971 305.405 373.141 317.896C376.312 330.388 404.674 352.709 404.674 352.709Z" fill="#4E4E4E" fill-opacity="0.09"/>
</g>
</svg>
