<svg width="34" height="24" viewBox="0 0 34 24" fill="none" xmlns="http://www.w3.org/2000/svg">
<path d="M7.7221 18.9606V21.1234H16.2626V24H4.82632V16.7559L12.7792 14.5932C13.9753 14.2572 14.8147 13.1654 14.8147 11.9265C14.8147 10.3937 13.5766 9.15485 12.0448 9.15485H2.87481V24H0V6.27821H12.0448C15.1504 6.27821 17.6895 8.8189 17.6895 11.9265C17.6895 14.4672 15.9688 16.7139 13.5347 17.3648L7.7221 18.9606ZM33.5324 6.71916C33.5324 3.02362 30.5107 0 26.8175 0H0.10492V2.87664H26.8175C28.9369 2.87664 30.6576 4.59843 30.6576 6.71916C30.6576 8.8399 28.9369 10.5617 26.8175 10.5617H22.4529V13.4383H26.8385C28.9579 13.4383 30.6786 15.1601 30.6786 17.2808C30.6786 19.4016 28.9579 21.1234 26.8385 21.1234H21.0469V10.5617H18.1721V24H26.8385C30.5317 24 33.5534 20.9764 33.5534 17.2808C33.5534 15.1391 32.5462 13.2283 30.9933 12.0105C32.5252 10.7717 33.5324 8.86089 33.5324 6.71916Z" fill="#1B1B1B"/>
</svg>
