<svg width="234" height="132" viewBox="0 0 234 132" fill="none" xmlns="http://www.w3.org/2000/svg">
<path d="M0 80.5376H34.4064V85.76H7.4752V102.093H31.8464V107.315H7.4752V130.509H0V80.5376ZM54.784 93.4912C53.1968 94.1568 51.8656 94.976 50.8416 96.0512C49.8176 97.1264 49.3056 98.2016 49.3056 99.4304V93.3376H42.752V130.662H49.7152V104.346C49.7152 102.144 50.432 100.608 51.9168 99.7376C53.4016 98.8672 55.7568 98.4576 59.0336 98.4576H62.8736V92.5184H59.4944C57.9072 92.5184 56.3712 92.8256 54.784 93.4912ZM100.506 105.216V113.459H75.4688V119.091C75.4688 121.651 76.3904 123.494 78.1824 124.621C79.9744 125.747 82.7392 126.31 86.528 126.31C90.0608 126.31 94.2592 125.696 99.072 124.467V129.792C94.3616 130.816 89.856 131.328 85.5552 131.328C74.1376 131.328 68.4544 127.539 68.4544 119.91V105.165C68.4544 100.659 69.7344 97.3824 72.3456 95.3856C74.9568 93.3888 79.1552 92.416 84.9408 92.416C90.4192 92.416 94.4128 93.3888 96.8704 95.2832C99.2768 97.28 100.506 100.557 100.506 105.216ZM93.5424 103.066C93.5424 100.813 92.8768 99.2256 91.4944 98.4064C90.112 97.536 87.808 97.1264 84.5312 97.1264C81.3568 97.1264 79.0528 97.536 77.568 98.4064C76.1344 99.2768 75.4176 100.813 75.4176 103.066V108.902H93.5424V103.066ZM141.722 105.216V113.459H116.685V119.091C116.685 121.651 117.606 123.494 119.398 124.621C121.19 125.747 123.955 126.31 127.744 126.31C131.277 126.31 135.475 125.696 140.339 124.467V129.792C135.629 130.816 131.123 131.328 126.822 131.328C115.405 131.328 109.722 127.539 109.722 119.91V105.165C109.722 100.659 111.002 97.3824 113.613 95.3856C116.224 93.3888 120.422 92.416 126.208 92.416C131.686 92.416 135.68 93.3888 138.138 95.2832C140.544 97.28 141.722 100.557 141.722 105.216ZM134.81 103.066C134.81 100.813 134.144 99.2256 132.762 98.4064C131.379 97.536 129.075 97.1264 125.798 97.1264C122.624 97.1264 120.32 97.536 118.835 98.4064C117.402 99.2768 116.685 100.813 116.685 103.066V108.902H134.81V103.066ZM181.76 82.2272C179.302 80.5376 175.258 79.7184 169.728 79.7184C164.198 79.7184 158.822 80.2304 153.6 81.2032V86.5792C159.795 85.504 164.71 84.9408 168.243 84.9408C171.827 84.9408 174.336 85.3504 175.821 86.1184C177.254 86.9376 177.971 88.4736 177.971 90.88V97.7408C177.971 100.762 176.333 103.014 173.056 104.448L164.71 108.134C163.123 108.8 161.843 109.414 160.87 109.926C159.744 110.49 158.566 111.206 157.286 112.026C156.006 112.896 155.085 113.664 154.47 114.381C153.702 115.251 153.088 116.326 152.576 117.555C152.064 118.835 151.859 120.166 151.859 121.6V130.56H185.446V125.184H158.925V121.856C158.925 118.886 160.614 116.634 163.994 115.046L175.565 109.722C178.176 108.544 180.173 107.469 181.555 106.496C182.938 105.523 183.91 104.448 184.525 103.27C185.139 102.042 185.446 100.557 185.446 98.6624V90.4704C185.446 86.6816 184.218 83.8656 181.76 82.2272ZM233.677 112.23V120.627C233.677 124.262 232.294 126.874 229.581 128.358C226.867 129.843 222.31 130.611 215.91 130.611H197.478V80.5376H215.347C219.597 80.5376 223.027 80.9984 225.536 81.8688C227.84 82.688 229.427 83.712 230.195 84.9408C231.014 86.1696 231.373 87.8592 231.373 90.0096V96.7168C231.373 98.7136 230.81 100.301 229.683 101.376C228.557 102.502 226.816 103.27 224.512 103.782V104.09C227.226 104.55 229.427 105.472 231.117 106.906C232.806 108.39 233.677 110.131 233.677 112.23ZM204.954 102.451H215.603C218.726 102.451 220.979 101.99 222.362 101.018C223.744 100.045 224.41 98.56 224.41 96.512V90.6752C224.41 88.7808 223.693 87.4496 222.31 86.6816C220.928 85.9136 218.624 85.504 215.347 85.504H204.954V102.451ZM226.202 112.794C226.202 111.462 225.946 110.387 225.382 109.568C224.819 108.749 224 108.186 222.874 107.827C221.747 107.52 220.723 107.315 219.853 107.264C218.982 107.162 217.651 107.162 215.91 107.162H204.954V125.44H215.91C219.648 125.44 222.31 125.03 223.846 124.262C225.382 123.494 226.15 122.163 226.15 120.32V112.794H226.202Z" fill="url(#paint0_linear_599_1243)"/>
<path d="M94.72 46.2336V51.5072H115.558V58.5216H87.6544V40.8576L107.059 35.584C109.978 34.7648 112.026 32.1024 112.026 29.0816C112.026 25.344 109.005 22.3232 105.267 22.3232H82.8928V58.5216H75.8784V15.3088H105.267C112.845 15.3088 119.04 21.504 119.04 29.0816C119.04 35.2768 114.842 40.7552 108.902 42.3424L94.72 46.2336ZM157.696 16.384C157.696 7.3728 150.323 0 141.312 0H76.1344V7.01439H141.312C146.483 7.01439 150.682 11.2128 150.682 16.384C150.682 21.5552 146.483 25.7536 141.312 25.7536H130.662V32.768H141.363C146.534 32.768 150.733 36.9664 150.733 42.1376C150.733 47.3088 146.534 51.5072 141.363 51.5072H127.232V25.7536H120.218V58.5216H141.363C150.374 58.5216 157.747 51.1488 157.747 42.1376C157.747 36.9152 155.29 32.256 151.501 29.2864C155.238 26.2656 157.696 21.6064 157.696 16.384Z" fill="url(#paint1_linear_599_1243)"/>
<defs>
<linearGradient id="paint0_linear_599_1243" x1="0.0133632" y1="105.537" x2="233.663" y2="105.537" gradientUnits="userSpaceOnUse">
<stop stop-color="#A47A1E"/>
<stop offset="0.2279" stop-color="#D3A84C"/>
<stop offset="0.414" stop-color="#FFEC94"/>
<stop offset="0.586" stop-color="#E6BE69"/>
<stop offset="0.7721" stop-color="#FFD87C"/>
<stop offset="1" stop-color="#B58F3E"/>
</linearGradient>
<linearGradient id="paint1_linear_599_1243" x1="75.9577" y1="29.2631" x2="157.719" y2="29.2631" gradientUnits="userSpaceOnUse">
<stop stop-color="#A47A1E"/>
<stop offset="0.2279" stop-color="#D3A84C"/>
<stop offset="0.414" stop-color="#FFEC94"/>
<stop offset="0.586" stop-color="#E6BE69"/>
<stop offset="0.7721" stop-color="#FFD87C"/>
<stop offset="1" stop-color="#B58F3E"/>
</linearGradient>
</defs>
</svg>
