<svg width="23" height="20" viewBox="0 0 23 20" fill="none" xmlns="http://www.w3.org/2000/svg">
<path d="M18.5262 14.5777C18.2724 15.1694 17.9588 15.7336 17.5903 16.2616C17.098 16.9647 16.6938 17.4505 16.384 17.7209C15.9027 18.1628 15.3857 18.3901 14.833 18.4029C14.437 18.4029 13.9585 18.2902 13.4011 18.061C12.842 17.8328 12.3286 17.7209 11.8584 17.7209C11.3661 17.7209 10.8381 17.8328 10.2726 18.061C9.70788 18.2902 9.25138 18.4103 8.90213 18.4213C8.37322 18.4442 7.8443 18.2113 7.31722 17.7209C6.9808 17.4276 6.56005 16.9234 6.05497 16.2102C5.51413 15.4503 5.06955 14.5658 4.72122 13.5602C4.34813 12.4721 4.16113 11.4198 4.16113 10.4004C4.16113 9.2335 4.41322 8.22608 4.9183 7.38275C5.30032 6.72043 5.84647 6.16765 6.50413 5.77767C7.15264 5.3887 7.89296 5.17926 8.64913 5.17083C9.0708 5.17083 9.62355 5.301 10.3083 5.55767C10.993 5.81433 11.433 5.9445 11.6246 5.9445C11.7695 5.9445 12.2562 5.79142 13.0849 5.488C13.8668 5.20658 14.5268 5.09017 15.0676 5.136C16.5343 5.25425 17.6352 5.83175 18.3676 6.87308C17.0568 7.66783 16.4087 8.77975 16.4215 10.207C16.4325 11.3189 16.8368 12.2438 17.6288 12.9781C17.9789 13.3132 18.3875 13.5813 18.8342 13.7692C18.7371 14.0506 18.6344 14.3192 18.5262 14.5777ZM15.1648 1.34925C15.1648 2.22008 14.8458 3.03408 14.2124 3.78667C13.446 4.68133 12.5202 5.19925 11.5165 5.11767C11.5033 5.00816 11.4969 4.89796 11.4972 4.78767C11.4972 3.95075 11.8602 3.05608 12.5083 2.32367C12.831 1.95333 13.2416 1.64442 13.7394 1.39875C14.2362 1.15675 14.7056 1.02292 15.1474 1C15.1593 1.11733 15.1648 1.23375 15.1648 1.34925Z" fill="white"/>
</svg>
