<svg width="24" height="24" viewBox="0 0 24 24" fill="none" xmlns="http://www.w3.org/2000/svg">
<rect width="24" height="24" fill="#F9F9F9"/>
<g clip-path="url(#clip0_67_662)">
<path d="M6.16659 3.66666H17.8333C18.0543 3.66666 18.2662 3.75445 18.4225 3.91073C18.5788 4.06701 18.6666 4.27898 18.6666 4.49999V20.4525C18.6667 20.527 18.6468 20.6002 18.609 20.6644C18.5712 20.7286 18.5169 20.7815 18.4517 20.8176C18.3865 20.8536 18.3129 20.8716 18.2384 20.8695C18.1639 20.8675 18.0913 20.8455 18.0283 20.8058L11.9999 17.025L5.97159 20.805C5.90856 20.8446 5.83607 20.8666 5.76167 20.8687C5.68727 20.8708 5.61366 20.8529 5.5485 20.8169C5.48334 20.7809 5.42901 20.7282 5.39115 20.6641C5.3533 20.6 5.33331 20.5269 5.33325 20.4525V4.49999C5.33325 4.27898 5.42105 4.06701 5.57733 3.91073C5.73361 3.75445 5.94557 3.66666 6.16659 3.66666ZM16.9999 5.33332H6.99992V18.1933L11.9999 15.0592L16.9999 18.1933V5.33332Z" fill="#1B1B1B"/>
</g>
<defs>
<clipPath id="clip0_67_662">
<rect width="20" height="20" fill="white" transform="translate(2 2)"/>
</clipPath>
</defs>
</svg>
