<svg width="23" height="20" viewBox="0 0 23 20" fill="none" xmlns="http://www.w3.org/2000/svg">
<path d="M19.5926 8.69995H11.9596V11.8634H16.3522C15.9434 13.8736 14.232 15.0286 11.9596 15.0286C11.3237 15.0297 10.6939 14.9053 10.1062 14.6624C9.51857 14.4195 8.98464 14.063 8.53506 13.6134C8.08548 13.1637 7.7291 12.6297 7.48635 12.042C7.2436 11.4543 7.11927 10.8245 7.12047 10.1886C7.11939 9.55284 7.24381 8.92309 7.48661 8.3355C7.72942 7.7479 8.08582 7.21401 8.53538 6.76445C8.98495 6.31488 9.51884 5.95848 10.1064 5.71567C10.694 5.47287 11.3238 5.34845 11.9596 5.34954C13.1136 5.34954 14.1568 5.75929 14.9754 6.42937L17.3587 4.04695C15.9067 2.78104 14.045 2.00003 11.9596 2.00003C10.8832 1.99689 9.81687 2.20657 8.82185 2.61702C7.82684 3.02746 6.92278 3.63058 6.16169 4.39167C5.4006 5.15276 4.79748 6.05681 4.38704 7.05183C3.97659 8.04685 3.76691 9.11319 3.77006 10.1895C3.76679 11.2659 3.97639 12.3323 4.38679 13.3274C4.79719 14.3225 5.4003 15.2266 6.16142 15.9877C6.92254 16.7488 7.82664 17.3519 8.82171 17.7623C9.81678 18.1727 10.8832 18.3823 11.9596 18.379C16.0543 18.379 19.7778 15.4008 19.7778 10.1895C19.7778 9.70553 19.7036 9.18395 19.5926 8.69995Z" fill="white"/>
</svg>
