<svg width="24" height="24" viewBox="0 0 24 24" fill="none" xmlns="http://www.w3.org/2000/svg">
<path d="M15.3191 10.3438L11.1711 14.4918L8.68213 12.0028" stroke="white" stroke-width="1.8" stroke-linecap="round" stroke-linejoin="round"/>
<path fill-rule="evenodd" clip-rule="evenodd" d="M19.1 5.9205C16.641 5.7265 14.403 4.7475 12.637 3.2325C12.275 2.9225 11.724 2.9225 11.363 3.2325C9.597 4.7465 7.359 5.7265 4.9 5.9205C4.388 5.9605 4 6.3985 4 6.9115V11.2415C4 15.6085 7.156 19.7035 11.478 20.9265C11.817 21.0225 12.184 21.0225 12.523 20.9265C16.844 19.7025 20 15.6095 20 11.2425V6.9125C20 6.3985 19.612 5.9605 19.1 5.9205Z" stroke="white" stroke-width="1.8" stroke-linecap="round" stroke-linejoin="round"/>
</svg>
