<svg width="25" height="24" viewBox="0 0 25 24" fill="none" xmlns="http://www.w3.org/2000/svg">
<path d="M18.4889 5.63604C22.0037 9.15076 22.0037 14.8492 18.4889 18.3639C14.9742 21.8787 9.27574 21.8787 5.76104 18.3639C2.24632 14.8492 2.24632 9.15074 5.76104 5.63604C9.27576 2.12132 14.9742 2.12132 18.4889 5.63604" stroke="#F9F9F9" stroke-width="1.5" stroke-linecap="round" stroke-linejoin="round"/>
<path d="M17.4319 19.257C17.0479 17.417 14.8299 16 12.1249 16C9.41987 16 7.20187 17.417 6.81787 19.257" stroke="#F9F9F9" stroke-width="1.5" stroke-linecap="round" stroke-linejoin="round"/>
<path d="M14.2463 7.87868C15.4179 9.05025 15.4179 10.9497 14.2463 12.1213C13.0747 13.2929 11.1752 13.2929 10.0037 12.1213C8.83211 10.9497 8.83211 9.05025 10.0037 7.87868C11.1752 6.70711 13.0747 6.70711 14.2463 7.87868" stroke="#F9F9F9" stroke-width="1.5" stroke-linecap="round" stroke-linejoin="round"/>
</svg>
