<svg width="24" height="24" viewBox="0 0 24 24" fill="none" xmlns="http://www.w3.org/2000/svg">
<path d="M6.9999 7.10195C6.50285 7.10195 6.0999 7.5049 6.0999 8.00195C6.0999 8.49901 6.50285 8.90195 6.9999 8.90195V7.10195ZM16.9999 8.90195C17.497 8.90195 17.8999 8.49901 17.8999 8.00195C17.8999 7.5049 17.497 7.10195 16.9999 7.10195V8.90195ZM7 11.102C6.50294 11.102 6.1 11.5049 6.1 12.002C6.1 12.499 6.50294 12.902 7 12.902V11.102ZM15 12.902C15.4971 12.902 15.9 12.499 15.9 12.002C15.9 11.5049 15.4971 11.102 15 11.102V12.902ZM7 15.102C6.50294 15.102 6.1 15.5049 6.1 16.002C6.1 16.499 6.50294 16.902 7 16.902V15.102ZM9 16.902C9.49706 16.902 9.9 16.499 9.9 16.002C9.9 15.5049 9.49706 15.102 9 15.102V16.902ZM14.3636 18.6383C14.7151 18.9898 15.2849 18.9898 15.6364 18.6383C15.9879 18.2869 15.9879 17.717 15.6364 17.3656L14.3636 18.6383ZM13.6364 15.3656C13.2849 15.0141 12.7151 15.0141 12.3636 15.3656C12.0121 15.717 12.0121 16.2869 12.3636 16.6383L13.6364 15.3656ZM18.6364 15.6383C18.9879 15.2869 18.9879 14.717 18.6364 14.3656C18.2849 14.0141 17.7151 14.0141 17.3636 14.3656L18.6364 15.6383ZM14.3636 17.3656C14.0121 17.717 14.0121 18.2869 14.3636 18.6383C14.7151 18.9898 15.2849 18.9898 15.6364 18.6383L14.3636 17.3656ZM6.9999 8.90195H16.9999V7.10195H6.9999V8.90195ZM7 12.902H15V11.102H7V12.902ZM7 16.902H9V15.102H7V16.902ZM19 20.102H5V21.902H19V20.102ZM5 20.102C4.39206 20.102 3.9 19.6099 3.9 19.002H2.1C2.1 20.604 3.39794 21.902 5 21.902V20.102ZM3.9 19.002V5.00195H2.1V19.002H3.9ZM3.9 5.00195C3.9 4.39401 4.39206 3.90195 5 3.90195V2.10195C3.39794 2.10195 2.1 3.3999 2.1 5.00195H3.9ZM5 3.90195H19V2.10195H5V3.90195ZM19 3.90195C19.6079 3.90195 20.1 4.39401 20.1 5.00195H21.9C21.9 3.3999 20.6021 2.10195 19 2.10195V3.90195ZM20.1 5.00195V19.002H21.9V5.00195H20.1ZM20.1 19.002C20.1 19.6099 19.6079 20.102 19 20.102V21.902C20.6021 21.902 21.9 20.604 21.9 19.002H20.1ZM15.6364 17.3656L13.6364 15.3656L12.3636 16.6383L14.3636 18.6383L15.6364 17.3656ZM17.3636 14.3656L14.3636 17.3656L15.6364 18.6383L18.6364 15.6383L17.3636 14.3656Z" fill="white"/>
</svg>
