<svg width="24" height="24" viewBox="0 0 24 24" fill="none" xmlns="http://www.w3.org/2000/svg">
<g clip-path="url(#clip0_109_5427)">
<path d="M1 14.4998C0.999385 13.3952 1.28042 12.3088 1.81655 11.3431C2.35268 10.3774 3.1262 9.56432 4.064 8.98076C4.31151 7.05085 5.2538 5.27727 6.71452 3.99192C8.17524 2.70658 10.0543 1.99756 12 1.99756C13.9457 1.99756 15.8248 2.70658 17.2855 3.99192C18.7462 5.27727 19.6885 7.05085 19.936 8.98076C21.0992 9.70445 22.0041 10.7772 22.5213 12.0457C23.0385 13.3143 23.1417 14.7139 22.8161 16.0446C22.4906 17.3753 21.7528 18.5692 20.7083 19.4556C19.6638 20.3421 18.366 20.8759 17 20.9808L7 20.9998C3.644 20.7258 1 17.9218 1 14.4998ZM16.848 18.9868C17.7938 18.914 18.6925 18.5443 19.4156 17.9303C20.1387 17.3163 20.6493 16.4895 20.8745 15.568C21.0996 14.6465 21.0278 13.6774 20.6692 12.7991C20.3107 11.9209 19.6837 11.1784 18.878 10.6778L18.071 10.1748L17.951 9.23276C17.7641 7.78645 17.0569 6.4577 15.9616 5.49485C14.8663 4.532 13.4578 4.00095 11.9995 4.00095C10.5412 4.00095 9.13272 4.532 8.03742 5.49485C6.94213 6.4577 6.23493 7.78645 6.048 9.23276L5.928 10.1748L5.123 10.6778C4.3173 11.1784 3.69038 11.9208 3.3318 12.7989C2.97321 13.6771 2.90129 14.6461 3.12631 15.5676C3.35133 16.4891 3.86177 17.3159 4.58475 17.9299C5.30773 18.544 6.20625 18.9139 7.152 18.9868L7.325 18.9998H16.675L16.848 18.9868ZM13 12.9998V16.9998H11V12.9998H8L12 7.99976L16 12.9998H13Z" fill="#AAAAAC"/>
</g>
<defs>
<clipPath id="clip0_109_5427">
<rect width="24" height="24" fill="white"/>
</clipPath>
</defs>
</svg>
